<svg xmlns:xlink="http://www.w3.org/1999/xlink" xmlns="http://www.w3.org/2000/svg" width="20" height="26" viewBox="0 0 20 26" fill="none">
<path d="M18.9091 20.5636H18.2V10.5182C18.2 6.34932 15.1184 2.90136 11.1091 2.32818V1.18182C11.1091 0.528864 10.5802 0 9.92727 0C9.27432 0 8.74545 0.528864 8.74545 1.18182V2.32818C4.73614 2.90136 1.65455 6.34932 1.65455 10.5182V20.5636H0.945455C0.4225 20.5636 0 20.9861 0 21.5091V22.4545C0 22.5845 0.106364 22.6909 0.236364 22.6909H6.61818C6.61818 24.5168 8.10136 26 9.92727 26C11.7532 26 13.2364 24.5168 13.2364 22.6909H19.6182C19.7482 22.6909 19.8545 22.5845 19.8545 22.4545V21.5091C19.8545 20.9861 19.432 20.5636 18.9091 20.5636ZM9.92727 24.1091C9.14432 24.1091 8.50909 23.4739 8.50909 22.6909H11.3455C11.3455 23.4739 10.7102 24.1091 9.92727 24.1091Z" fill="white"/>
</svg>